<svg width="330" height="330" viewBox="0 0 330 330" fill="none" xmlns="http://www.w3.org/2000/svg">
<path d="M235 0H35C26.716 0 20 6.716 20 15V255C20 263.284 26.716 270 35 270H50V240V30H105.751H220H250V15C250 6.716 243.284 0 235 0Z" fill="white"/>
<path d="M220 88.787L200 68.787V111.213V170H258.787H301.214L250 118.787L220 88.787Z" fill="white"/>
<path d="M95 330H295C303.284 330 310 323.284 310 315V200H301.214H280H258.787H200H185C176.716 200 170 193.284 170 185V170V111.213V90V68.787V60H105.751H95C86.716 60 80 66.716 80 75V240V270V307.883V315C80 323.284 86.716 330 95 330Z" fill="white"/>
</svg>
