<svg width="48" height="48" viewBox="0 0 48 48" fill="none" xmlns="http://www.w3.org/2000/svg">
<path d="M44 24C44 35 35 44 24 44C13 44 4 35 4 24C4 13 13 4 24 4C35 4 44 13 44 24Z" fill="#FF2E2E"/>
<path d="M26 16.2C25.4 15.6 24.5 15.3 23.5 15.1C23.1 14.6 22.5 14.1 21.6 13.6C20 12.8 18.1 12.4 16.3 12.7H15.9C15.8 12.7 15.7 12.8 15.5 12.8C15.7 12.8 16.5 13.2 17.1 13.4C16.8 13.6 16.3 13.6 16 13.8C16 13.8 16 13.8 15.9 13.8L15.7 14C15.6 14.2 15.5 14.4 15.5 14.5C16.8 14.4 18.7 14.5 20.1 14.9C19 15 18 15.3 17.3 15.7C16.8 16 16.3 16.3 16 16.8C14.8 18.1 14.3 20.3 14.7 22.7C15.2 25.4 17.1 34.1 18.1 39L18.4 40.6C18.4 40.6 21.9 41 24 41C25.2 41 27.2 41.3 27.7 40.8C27.6 40.8 27.1 40.2 26.9 39.7C26.4 38.7 25.9 37.8 25.5 37.1C24.3 34.6 23 31.2 23.6 29C23.7 28.6 23.7 26.9 24 26.7C26.6 25 26.4 26.6 27.5 25.9C28 25.5 28.5 25 28.7 24.4C29.4 22.1 27.8 18 26 16.2Z" fill="white"/>
<path d="M24 42C14.1 42 6 33.9 6 24C6 14.1 14.1 6 24 6C33.9 6 42 14.1 42 24C42 33.9 33.9 42 24 42ZM24 8C15.2 8 8 15.2 8 24C8 32.8 15.2 40 24 40C32.8 40 40 32.8 40 24C40 15.2 32.8 8 24 8Z" fill="white"/>
<path d="M19 21.1C18.4 21.1 17.8 21.6 17.8 22.3C17.8 22.9 18.3 23.5 19 23.5C19.6 23.5 20.2 23 20.2 22.3C20.1 21.7 19.6 21.1 19 21.1ZM19.5 22.2C19.3 22.2 19.2 22.1 19.2 21.9C19.2 21.7 19.3 21.6 19.5 21.6C19.7 21.6 19.8 21.7 19.8 21.9C19.8 22.1 19.6 22.2 19.5 22.2ZM26.8 20.6C26.2 20.6 25.8 21.1 25.8 21.6C25.8 22.2 26.3 22.6 26.8 22.6C27.4 22.6 27.8 22.1 27.8 21.6C27.8 21.1 27.3 20.6 26.8 20.6ZM27.2 21.5C27.1 21.5 26.9 21.4 26.9 21.2C26.9 21.1 27 20.9 27.2 20.9C27.3 20.9 27.5 21 27.5 21.2C27.5 21.4 27.4 21.5 27.2 21.5ZM19.3 18.9C19.3 18.9 18.4 18.5 17.6 19C16.7 19.5 16.8 20.1 16.8 20.1C16.8 20.1 16.3 19.1 17.6 18.6C18.7 18.1 19.3 18.9 19.3 18.9ZM27.4 18.8C27.4 18.8 26.8 18.4 26.3 18.4C25.3 18.4 25 18.9 25 18.9C25 18.9 25.2 17.8 26.5 18C27.1 18.2 27.4 18.8 27.4 18.8Z" fill="#16171D"/>
<path d="M23.3 35.7C23.3 35.7 19 33.4 18.9 34.3C18.8 35.2 18.9 39 19.4 39.3C19.9 39.6 23.5 37.4 23.5 37.4L23.3 35.7ZM25 35.6C25 35.6 27.9 33.4 28.6 33.5C29.2 33.6 29.4 38.2 28.8 38.4C28.2 38.6 24.9 37.2 24.9 37.2L25 35.6Z" fill="#52FA7C"/>
<path d="M22.5 35.7C22.5 37.2 22.3 37.8 22.9 38C23.5 38.1 24.8 38 25.2 37.7C25.6 37.4 25.3 35.5 25.1 35.1C25 34.8 22.5 35.1 22.5 35.7Z" fill="#1DDA4C"/>
<path d="M22.3 26.8C22.4 26.1 24.3 24.7 25.6 24.6C26.9 24.5 27.3 24.5 28.4 24.3C29.5 24 32.3 23.3 33.1 23C33.9 22.6 37.2 23.2 34.9 24.5C33.9 25.1 31.2 26.1 29.2 26.7C27.3 27.3 26.1 26.1 25.4 27.1C24.9 27.9 25.3 28.9 27.6 29.1C30.7 29.4 33.8 27.7 34.1 28.6C34.4 29.5 31.4 30.6 29.5 30.7C27.7 30.7 23.9 29.5 23.4 29.1C22.9 28.7 22.2 27.8 22.3 26.8Z" fill="#EEFF2C"/>
</svg>
