<svg width="490" height="490" viewBox="0 0 490 490" fill="none" xmlns="http://www.w3.org/2000/svg">
<g clip-path="url(#clip0)">
<path d="M20.701 281.901L52.801 282.101C57.601 306.801 67.101 330.801 81.501 352.601L58.701 375.201C50.501 383.301 50.501 396.401 58.501 404.601L83.101 429.501C91.201 437.701 104.301 437.701 112.501 429.701L135.301 407.101C156.901 421.701 180.801 431.601 205.501 436.601L205.301 468.701C205.201 480.201 214.501 489.501 226.001 489.601L261.001 489.801C272.501 489.901 281.801 480.601 281.901 469.101L282.101 437.001C306.801 432.201 330.801 422.701 352.601 408.301L375.201 431.101C383.301 439.301 396.401 439.301 404.601 431.301L429.501 406.701C437.701 398.601 437.701 385.501 429.701 377.301L407.101 354.501C421.701 332.901 431.601 309.001 436.601 284.301L468.701 284.501C480.201 284.601 489.501 275.301 489.601 263.801L489.801 228.801C489.901 217.301 480.601 208.001 469.101 207.901L437.001 207.701C432.201 183.001 422.701 159.001 408.301 137.201L431.101 114.601C439.301 106.501 439.301 93.401 431.301 85.201L406.701 60.301C398.601 52.101 385.501 52.101 377.301 60.101L354.501 82.701C332.901 68.101 309.001 58.201 284.301 53.201L284.501 21.101C284.601 9.60104 275.301 0.301043 263.801 0.201043L228.801 0.0010431C217.301 -0.0989569 208.001 9.20104 207.901 20.701L207.601 52.801C182.801 57.601 158.801 67.101 137.101 81.501L114.501 58.701C106.401 50.501 93.301 50.501 85.101 58.501L60.301 83.101C52.101 91.201 52.101 104.301 60.101 112.501L82.701 135.301C68.101 156.901 58.201 180.801 53.201 205.501L21.101 205.301C9.60101 205.201 0.301013 214.501 0.201013 226.001L0.00101258 261.001C-0.0989874 272.401 9.20101 281.801 20.701 281.901ZM179.301 178.601C215.901 142.401 274.801 142.701 311.001 179.301C347.201 215.901 346.901 274.801 310.301 311.001C273.701 347.201 214.801 346.901 178.601 310.301C142.401 273.701 142.701 214.801 179.301 178.601Z" fill="#16171D"/>
</g>
<defs>
<clipPath id="clip0">
<rect width="489.802" height="489.802" fill="white"/>
</clipPath>
</defs>
</svg>
