<svg width="474" height="474" viewBox="0 0 474 474" fill="none" xmlns="http://www.w3.org/2000/svg">
<g clip-path="url(#clip0)">
<path d="M236.966 473.932C367.839 473.932 473.932 367.839 473.932 236.966C473.932 106.093 367.839 0 236.966 0C106.093 0 0 106.093 0 236.966C0 367.839 106.093 473.932 236.966 473.932Z" fill="#F8F8F2"/>
<path d="M164.117 353.904C220.641 353.904 266.462 308.083 266.462 251.559C266.462 195.035 220.641 149.214 164.117 149.214C107.593 149.214 61.772 195.035 61.772 251.559C61.772 308.083 107.593 353.904 164.117 353.904Z" fill="#FFB86B"/>
<path d="M317.073 327.359C317.29 325.802 318.304 324.467 318.304 322.843C318.304 298.2 291.644 278.204 258.746 278.204C254.443 278.204 250.615 279.401 246.552 280.06C236.696 266.956 218.71 257.733 197.194 257.733C169.344 257.733 147.208 272.883 141.977 292.636C114.965 298.002 94.584 315.633 94.584 337.597C94.584 358.39 112.75 375.52 137.618 381.869C146.037 400.825 169.139 414.718 197.194 414.718C222.649 414.718 244.224 403.317 254.413 387.137C260.954 389.315 268.104 390.617 275.715 390.617C304.882 390.617 328.545 372.874 328.545 350.954C328.549 341.948 323.831 334.023 317.073 327.359Z" fill="#A265F6"/>
<path d="M374.64 171.537L412.132 182.871C409.614 193.382 405.648 202.163 400.233 209.217C394.819 216.27 388.098 221.591 380.065 225.179C372.039 228.767 361.824 230.563 349.42 230.563C334.374 230.563 322.079 228.378 312.545 224.007C303.007 219.629 294.772 211.94 287.849 200.928C280.919 189.916 277.458 175.825 277.458 158.642C277.458 135.739 283.55 118.134 295.733 105.842C307.916 93.5351 325.151 87.3881 347.44 87.3881C364.884 87.3881 378.586 90.9161 388.569 97.9621C398.545 105.015 405.961 115.844 410.806 130.455L373.033 138.859C371.708 134.635 370.324 131.551 368.88 129.598C366.482 126.324 363.559 123.809 360.091 122.047C356.63 120.277 352.761 119.402 348.48 119.402C338.781 119.402 331.35 123.305 326.187 131.095C322.284 136.884 320.331 145.968 320.331 158.361C320.331 173.702 322.658 184.217 327.321 189.912C331.979 195.603 338.528 198.447 346.965 198.447C355.148 198.447 361.333 196.153 365.524 191.555C369.708 186.957 372.75 180.282 374.64 171.537Z" fill="#16171D"/>
<path d="M248.165 59.187C232.244 59.187 219.327 72.1 219.327 88.025C219.327 103.957 232.24 116.87 248.165 116.87C264.09 116.87 277.003 103.957 277.003 88.025C277.003 72.1 264.09 59.187 248.165 59.187ZM248.165 106.831C237.782 106.831 229.363 98.42 229.363 88.029C229.363 77.646 237.782 69.227 248.165 69.227C258.552 69.227 266.975 77.646 266.975 88.029C266.975 98.42 258.552 106.831 248.165 106.831Z" fill="#16171D"/>
</g>
<defs>
<clipPath id="clip0">
<rect width="473.931" height="473.931" fill="white"/>
</clipPath>
</defs>
</svg>
