<svg width="512" height="512" viewBox="0 0 512 512" fill="none" xmlns="http://www.w3.org/2000/svg">
<path d="M256 512C397.385 512 512 397.385 512 256C512 114.615 397.385 0 256 0C114.615 0 0 114.615 0 256C0 397.385 114.615 512 256 512Z" fill="#BF95F9"/>
<path opacity="0.1" d="M298.747 141.056V141.189L278.4 120.837C277.403 119.696 276.331 118.629 275.189 117.632L275.045 117.488V117.499C269.168 112.427 261.53 109.334 253.157 109.334C234.634 109.334 219.621 124.347 219.621 142.87V273.665C198.549 285.441 184.298 307.953 184.298 333.809C184.298 355.382 194.234 374.625 209.765 387.249L209.754 387.26L325.007 502.513C410.5 478.63 477.892 411.516 502.18 326.193L317.04 141.056H298.747Z" fill="black"/>
<path d="M286.693 273.664V142.869C286.693 124.346 271.68 109.333 253.157 109.333C234.634 109.333 219.621 124.346 219.621 142.869V273.664C198.549 285.44 184.298 307.952 184.298 333.803C184.298 371.835 215.13 402.662 253.157 402.662C291.189 402.662 322.021 371.83 322.021 333.803C322.016 307.952 307.76 285.44 286.693 273.664Z" fill="#E1E6E9"/>
<path d="M253.152 397.691C217.925 397.691 189.264 369.03 189.264 333.803C189.264 310.683 201.824 289.302 222.043 278.006L224.592 276.582V142.869C224.592 127.12 237.403 114.309 253.152 114.309C268.901 114.309 281.712 127.12 281.712 142.869V276.581L284.261 278.005C304.48 289.301 317.04 310.682 317.04 333.802C317.04 369.029 288.379 397.691 253.152 397.691Z" fill="#F8F8F2"/>
<path d="M260.384 142.869C260.384 138.885 257.141 135.642 253.152 135.642C249.168 135.642 245.925 138.885 245.925 142.869V210.202H260.384V142.869Z" fill="#C5C7D3"/>
<path d="M273.84 296.619L269.733 294.32C263.957 291.088 260.384 284.987 260.384 278.368V210.208H245.925V278.373C245.925 284.986 242.352 291.088 236.581 294.32L232.453 296.635C214.949 306.406 206.064 327.51 212.928 347.755C217.984 362.667 231.397 373.718 246.992 375.92C273.184 379.621 295.712 359.291 295.712 333.803C295.707 318.405 287.339 304.16 273.84 296.619Z" fill="#FF5757"/>
<path d="M317.066 141.056H298.773V146.389H317.066V141.056Z" fill="#16171D"/>
<path d="M327.733 152.581H298.773V157.914H327.733V152.581Z" fill="#16171D"/>
<path d="M317.066 164.107H298.773V169.44H317.066V164.107Z" fill="#16171D"/>
<path d="M317.066 175.632H298.773V180.965H317.066V175.632Z" fill="#16171D"/>
<path d="M327.733 187.147H298.773V192.48H327.733V187.147Z" fill="#16171D"/>
<path d="M317.066 198.667H298.773V204H317.066V198.667Z" fill="#16171D"/>
<path d="M317.066 210.187H298.773V215.52H317.066V210.187Z" fill="#16171D"/>
<path d="M327.733 221.739H298.773V227.072H327.733V221.739Z" fill="#16171D"/>
<path d="M317.066 233.264H298.773V238.597H317.066V233.264Z" fill="#16171D"/>
<path d="M317.066 244.789H298.773V250.122H317.066V244.789Z" fill="#16171D"/>
<path d="M327.733 256.32H298.773V261.653H327.733V256.32Z" fill="#16171D"/>
</svg>
