<svg width="497" height="497" viewBox="0 0 497 497" fill="none" xmlns="http://www.w3.org/2000/svg">
<g clip-path="url(#clip0)">
<path d="M248.077 0C111.072 0 0.00201416 111.063 0.00201416 248.083C0.00201416 385.088 111.072 496.161 248.077 496.161C385.09 496.161 496.16 385.088 496.16 248.083C496.16 111.063 385.09 0 248.077 0Z" fill="#A265F6"/>
<g opacity="0.5">
<path opacity="0.5" d="M404.775 55.78C398.788 50.895 392.58 46.278 386.15 41.96C359.782 24.265 329.831 11.488 297.614 4.95798C296.627 4.75998 295.617 4.61398 294.63 4.42698C279.544 1.56198 263.998 0.000976562 248.077 0.000976562C228.193 0.000976562 208.884 2.40698 190.354 6.82498C183.66 8.41998 177.081 10.279 170.608 12.406C142.576 21.617 116.764 35.682 94.137 53.615C83.223 62.272 73.026 71.785 63.711 82.125C44.329 103.646 28.706 128.595 17.758 155.926C28.216 174.773 47.14 188.601 70.164 191.528C90.767 194.144 110.367 187.473 124.907 174.85C135.625 186.065 150.104 193.83 166.69 195.942C181.188 197.782 195.203 195.044 207.306 188.87C218.288 203.363 234.844 213.619 254.311 216.094C281.814 219.587 307.551 206.585 321.769 184.842C331.317 192.217 342.85 197.281 355.688 198.911C378.547 201.814 400.175 193.304 415.014 177.88C439.255 175.925 460.542 161.404 471.516 140.182C455.643 107.36 432.737 78.59 404.775 55.78Z" fill="#F8F8F2"/>
</g>
<g opacity="0.5">
<path opacity="0.5" d="M372.953 33.75C367.291 30.445 361.527 27.301 355.59 24.443C341.57 17.691 326.809 12.248 311.477 8.20898C310.689 7.99798 309.901 7.78798 309.113 7.58898C293.686 3.68398 277.693 1.21698 261.271 0.355977C256.899 0.126977 252.503 0.000976562 248.078 0.000976562C236.277 0.000976562 224.683 0.880977 213.322 2.47598C191.488 5.53998 170.552 11.401 150.925 19.762C149.977 20.168 149.047 20.623 148.098 21.044C139.418 24.869 131.003 29.18 122.878 33.942C95.489 49.989 71.465 71.131 52.09 96.084C51.382 96.99 50.648 97.878 49.956 98.796C50.863 99.163 51.811 99.45 52.741 99.782C58.647 130.954 84.728 155.6 117.874 158.178C132.853 159.341 147.114 155.825 159.232 148.875C171.236 163.208 188.748 172.909 208.861 174.474C237.278 176.677 263.057 162.035 276.568 138.991C286.743 146.091 298.839 150.708 312.101 151.741C335.722 153.577 357.507 143.746 371.966 127.164C398.823 123.675 421.396 105.222 430.412 79.91C413.714 61.817 394.346 46.244 372.953 33.75Z" fill="#F8F8F2"/>
</g>
<path d="M248.077 0C173.408 0 106.489 33.039 61.014 85.242C65.115 84.863 69.131 84.167 73.026 83.165C85.58 106.185 109.993 121.804 138.059 121.804C156.791 121.804 173.852 114.792 186.889 103.321C199.929 114.793 216.986 121.804 235.722 121.804C267.839 121.804 295.101 101.316 305.349 72.722C317.62 81.753 332.73 87.155 349.133 87.155C373.014 87.155 394.195 75.801 407.728 58.252C364.578 21.923 308.898 0 248.077 0Z" fill="#F8F8F2"/>
<path d="M384.967 231.374C381.906 228.313 371.682 233.581 362.126 243.137C352.571 252.693 347.307 262.921 350.363 265.978C353.424 269.038 363.648 263.771 373.204 254.215C382.764 244.664 388.023 234.435 384.967 231.374Z" fill="#F8F8F2"/>
<path d="M223.064 231.374C220.004 228.313 209.779 233.581 200.223 243.137C190.668 252.693 185.404 262.921 188.461 265.978C191.521 269.038 201.746 263.771 211.301 254.215C220.86 244.664 226.12 234.435 223.064 231.374Z" fill="#F8F8F2"/>
<path d="M63.119 231.374C60.059 228.313 49.834 233.581 40.279 243.137C30.723 252.693 25.46 262.921 28.516 265.978C31.576 269.038 41.801 263.771 51.356 254.215C60.915 244.664 66.175 234.435 63.119 231.374Z" fill="#F8F8F2"/>
<path d="M140.152 231.374C137.091 228.313 126.867 233.581 117.311 243.137C107.755 252.693 102.492 262.921 105.548 265.978C108.608 269.038 118.833 263.771 128.389 254.215C137.948 244.664 143.208 234.435 140.152 231.374Z" fill="#F8F8F2"/>
<path d="M305.973 231.374C302.912 228.313 292.688 233.581 283.132 243.137C273.576 252.693 268.313 262.921 271.369 265.978C274.429 269.038 284.654 263.771 294.21 254.215C303.768 244.664 309.029 234.435 305.973 231.374Z" fill="#F8F8F2"/>
<path d="M463.966 231.374C460.906 228.313 450.681 233.581 441.125 243.137C431.57 252.693 426.306 262.921 429.362 265.978C432.423 269.038 442.647 263.771 452.203 254.215C461.763 244.664 467.022 234.435 463.966 231.374Z" fill="#F8F8F2"/>
<path d="M416.303 290.13C413.243 287.069 403.018 292.337 393.462 301.893C383.907 311.449 378.643 321.677 381.699 324.734C384.76 327.794 394.984 322.527 404.54 312.971C414.1 303.419 419.359 293.191 416.303 290.13Z" fill="#F8F8F2"/>
<path d="M254.4 290.13C251.34 287.069 241.115 292.337 231.559 301.893C222.004 311.449 216.74 321.677 219.797 324.734C222.857 327.794 233.082 322.527 242.637 312.971C252.197 303.419 257.456 293.191 254.4 290.13Z" fill="#F8F8F2"/>
<path d="M94.455 290.13C91.395 287.069 81.17 292.337 71.615 301.893C62.059 311.449 56.796 321.677 59.852 324.734C62.912 327.794 73.137 322.527 82.692 312.971C92.252 303.419 97.512 293.191 94.455 290.13Z" fill="#F8F8F2"/>
<path d="M171.488 290.13C168.427 287.069 158.203 292.337 148.647 301.893C139.091 311.449 133.828 321.677 136.884 324.734C139.944 327.794 150.169 322.527 159.725 312.971C169.285 303.419 174.544 293.191 171.488 290.13Z" fill="#F8F8F2"/>
<path d="M337.309 290.13C334.248 287.069 324.024 292.337 314.468 301.893C304.912 311.449 299.649 321.677 302.705 324.734C305.765 327.794 315.99 322.527 325.546 312.971C335.104 303.419 340.365 293.191 337.309 290.13Z" fill="#F8F8F2"/>
<path d="M449.603 351.498C446.543 348.438 436.318 353.705 426.762 363.261C417.207 372.817 411.943 383.041 414.999 386.102C418.06 389.163 428.284 383.895 437.84 374.339C447.398 364.784 452.659 354.555 449.603 351.498Z" fill="#F8F8F2"/>
<path d="M287.699 351.498C284.639 348.438 274.414 353.705 264.858 363.261C255.303 372.817 250.039 383.041 253.096 386.102C256.156 389.163 266.381 383.895 275.936 374.339C285.496 364.784 290.755 354.555 287.699 351.498Z" fill="#F8F8F2"/>
<path d="M127.754 351.498C124.694 348.438 114.469 353.705 104.914 363.261C95.358 372.817 90.095 383.041 93.151 386.102C96.211 389.163 106.436 383.895 115.991 374.339C125.551 364.784 130.81 354.555 127.754 351.498Z" fill="#F8F8F2"/>
<path d="M204.787 351.498C201.726 348.438 191.502 353.705 181.946 363.261C172.39 372.817 167.127 383.041 170.183 386.102C173.243 389.163 183.468 383.895 193.024 374.339C202.583 364.784 207.843 354.555 204.787 351.498Z" fill="#F8F8F2"/>
<path d="M370.608 351.498C367.547 348.438 357.323 353.705 347.767 363.261C338.211 372.817 332.948 383.041 336.004 386.102C339.064 389.163 349.289 383.895 358.845 374.339C368.404 364.784 373.664 354.555 370.608 351.498Z" fill="#F8F8F2"/>
<path d="M327.523 412.868C324.463 409.807 314.238 415.075 304.682 424.631C295.127 434.186 289.863 444.41 292.92 447.471C295.98 450.532 306.205 445.264 315.76 435.708C325.32 426.153 330.579 415.923 327.523 412.868Z" fill="#F8F8F2"/>
<path d="M167.579 412.868C164.519 409.807 154.294 415.075 144.739 424.631C135.183 434.186 129.92 444.41 132.976 447.471C136.036 450.532 146.261 445.264 155.816 435.708C165.375 426.153 170.635 415.923 167.579 412.868Z" fill="#F8F8F2"/>
<path d="M244.611 412.868C241.551 409.807 231.326 415.075 221.771 424.631C212.215 434.186 206.952 444.41 210.008 447.471C213.068 450.532 223.293 445.264 232.849 435.708C242.408 426.153 247.668 415.923 244.611 412.868Z" fill="#F8F8F2"/>
</g>
<defs>
<clipPath id="clip0">
<rect width="496.161" height="496.161" fill="white"/>
</clipPath>
</defs>
</svg>
